<?xml version="1.0" encoding="UTF-8"?>
<svg width="70px" height="82px" viewBox="0 0 70 82" version="1.1" xmlns="http://www.w3.org/2000/svg" xmlns:xlink="http://www.w3.org/1999/xlink">
    <!-- Generator: Sketch 52.6 (67491) - http://www.bohemiancoding.com/sketch -->
    <title>calendar (1)</title>
    <desc>Created with Sketch.</desc>
    <defs>
        <rect id="path-1" x="0" y="18" width="56" height="55"></rect>
        <filter x="-20.5%" y="-17.3%" width="141.1%" height="141.8%" filterUnits="objectBoundingBox" id="filter-2">
            <feMorphology radius="0.5" operator="dilate" in="SourceAlpha" result="shadowSpreadOuter1"></feMorphology>
            <feOffset dx="0" dy="2" in="shadowSpreadOuter1" result="shadowOffsetOuter1"></feOffset>
            <feGaussianBlur stdDeviation="3" in="shadowOffsetOuter1" result="shadowBlurOuter1"></feGaussianBlur>
            <feColorMatrix values="0 0 0 0 0.63849915   0 0 0 0 0.63849915   0 0 0 0 0.63849915  0 0 0 0.5 0" type="matrix" in="shadowBlurOuter1"></feColorMatrix>
        </filter>
    </defs>
    <g id="Expert-Talk" stroke="none" stroke-width="1" fill="none" fill-rule="evenodd">
        <g id="3_ExpertTalk_CallRequests_ExpertView" transform="translate(-963.000000, -327.000000)">
            <g id="Group-15-Copy-2" transform="translate(945.000000, 307.000000)">
                <g id="Group-12" transform="translate(25.000000, 20.000000)">
                    <g id="calendar-(1)">
                        <g id="Rectangle">
                            <use fill="black" fill-opacity="1" filter="url(#filter-2)" xlink:href="#path-1"></use>
                            <use fill="#FFFFFF" fill-rule="evenodd" xlink:href="#path-1"></use>
                        </g>
                        <polygon id="Path" fill="#232751" points="41 5 15 5 0 5 0 18 56 18 56 5"></polygon>
                        <circle id="Oval" fill="#38454F" cx="19.5" cy="9" r="2"></circle>
                        <circle id="Oval" fill="#38454F" cx="25.5" cy="9" r="2"></circle>
                        <circle id="Oval" fill="#38454F" cx="31.5" cy="9" r="2"></circle>
                        <circle id="Oval" fill="#38454F" cx="37.5" cy="9" r="2"></circle>
                        <path d="M37.5,0 C36.37,0 35.338,0.391 34.5,1.025 C35.034,1.43 35.479,1.937 35.815,2.52 C36.296,2.192 36.876,2 37.5,2 C39.154,2 40.5,3.346 40.5,5 C40.5,6.654 39.154,8 37.5,8 C36.947,8 36.5,8.447 36.5,9 C36.5,9.553 36.947,10 37.5,10 C40.257,10 42.5,7.757 42.5,5 C42.5,2.243 40.257,0 37.5,0 Z" id="Path" fill="#AFB6BB"></path>
                        <path d="M33.185,2.52 C32.761,3.254 32.5,4.093 32.5,5 L34.5,5 C34.5,3.97 33.978,3.061 33.185,2.52 Z" id="Path" fill="#839594"></path>
                        <path d="M27.185,2.52 C26.761,3.254 26.5,4.093 26.5,5 L28.5,5 C28.5,3.97 27.978,3.061 27.185,2.52 Z" id="Path" fill="#839594"></path>
                        <path d="M35.815,2.52 C35.478,1.937 35.034,1.43 34.5,1.025 C33.662,0.391 32.63,0 31.5,0 C30.37,0 29.338,0.391 28.5,1.025 C29.034,1.43 29.479,1.937 29.815,2.52 C30.296,2.192 30.876,2 31.5,2 C32.124,2 32.704,2.192 33.185,2.52 C33.978,3.061 34.5,3.97 34.5,5 C34.5,6.654 33.154,8 31.5,8 C30.947,8 30.5,8.447 30.5,9 C30.5,9.553 30.947,10 31.5,10 C34.257,10 36.5,7.757 36.5,5 C36.5,4.093 36.239,3.254 35.815,2.52 Z" id="Path" fill="#AFB6BB"></path>
                        <path d="M21.185,2.52 C20.761,3.254 20.5,4.093 20.5,5 L22.5,5 C22.5,3.97 21.978,3.061 21.185,2.52 Z" id="Path" fill="#839594"></path>
                        <path d="M29.815,2.52 C29.478,1.937 29.034,1.43 28.5,1.025 C27.662,0.391 26.63,0 25.5,0 C24.37,0 23.338,0.391 22.5,1.025 C23.034,1.43 23.479,1.937 23.815,2.52 C24.296,2.192 24.876,2 25.5,2 C26.124,2 26.704,2.192 27.185,2.52 C27.978,3.061 28.5,3.97 28.5,5 C28.5,6.654 27.154,8 25.5,8 C24.947,8 24.5,8.447 24.5,9 C24.5,9.553 24.947,10 25.5,10 C28.257,10 30.5,7.757 30.5,5 C30.5,4.093 30.239,3.254 29.815,2.52 Z" id="Path" fill="#AFB6BB"></path>
                        <path d="M23.815,2.52 C23.478,1.937 23.034,1.43 22.5,1.025 C21.662,0.391 20.63,0 19.5,0 C16.743,0 14.5,2.243 14.5,5 L16.5,5 C16.5,3.346 17.846,2 19.5,2 C20.124,2 20.704,2.192 21.185,2.52 C21.978,3.061 22.5,3.97 22.5,5 C22.5,6.654 21.154,8 19.5,8 C18.947,8 18.5,8.447 18.5,9 C18.5,9.553 18.947,10 19.5,10 C22.257,10 24.5,7.757 24.5,5 C24.5,4.093 24.239,3.254 23.815,2.52 Z" id="Path" fill="#AFB6BB"></path>
                        <path d="M8,56 L48,56" id="Path-4" stroke="#F8F8F8"></path>
                    </g>
                </g>
            </g>
        </g>
    </g>
</svg>